<svg xmlns="http://www.w3.org/2000/svg" xmlns:xlink="http://www.w3.org/1999/xlink" width="1080" zoomAndPan="magnify" viewBox="0 0 810 809.999993" height="1080" preserveAspectRatio="xMidYMid meet" version="1.2"><defs><clipPath id="cef2586145"><path d="M 318.625 529.730469 L 577.59375 529.730469 L 577.59375 542.148438 L 318.625 542.148438 Z M 318.625 529.730469 "/></clipPath><clipPath id="2da88ced39"><path d="M 318.625 550.117188 L 577.59375 550.117188 L 577.59375 562.535156 L 318.625 562.535156 Z M 318.625 550.117188 "/></clipPath><clipPath id="419d659471"><path d="M 318.625 570.488281 L 577.59375 570.488281 L 577.59375 582.90625 L 318.625 582.90625 Z M 318.625 570.488281 "/></clipPath><clipPath id="3ce6f22fef"><path d="M 280.59375 499.136719 L 304.640625 499.136719 L 304.640625 582.90625 L 280.59375 582.90625 Z M 280.59375 499.136719 "/></clipPath><clipPath id="3350cbec71"><path d="M 474.015625 267.371094 L 497.285156 267.371094 L 497.285156 351.136719 L 474.015625 351.136719 Z M 474.015625 267.371094 "/></clipPath></defs><g id="7ef6c1cf56"><g style="fill:#494646;fill-opacity:1;"><g transform="translate(220.059674, 513.538142)"><path style="stroke:none" d="M 37.296875 -69.578125 C 41.160156 -69.578125 44.976562 -69.132812 48.75 -68.25 C 52.53125 -67.375 55.34375 -66.5 57.1875 -65.625 L 59.953125 -64.3125 L 52.3125 -49.015625 C 47.039062 -51.828125 42.035156 -53.234375 37.296875 -53.234375 C 34.660156 -53.234375 32.789062 -52.945312 31.6875 -52.375 C 30.59375 -51.8125 30.046875 -50.738281 30.046875 -49.15625 C 30.046875 -48.800781 30.085938 -48.445312 30.171875 -48.09375 C 30.265625 -47.75 30.441406 -47.421875 30.703125 -47.109375 C 30.960938 -46.804688 31.203125 -46.539062 31.421875 -46.3125 C 31.648438 -46.09375 32.023438 -45.851562 32.546875 -45.59375 C 33.078125 -45.332031 33.492188 -45.132812 33.796875 -45 C 34.109375 -44.875 34.613281 -44.675781 35.3125 -44.40625 C 36.019531 -44.144531 36.546875 -43.945312 36.890625 -43.8125 C 37.242188 -43.6875 37.835938 -43.488281 38.671875 -43.21875 C 39.515625 -42.957031 40.15625 -42.785156 40.59375 -42.703125 C 43.3125 -41.910156 45.679688 -41.03125 47.703125 -40.0625 C 49.722656 -39.09375 51.851562 -37.773438 54.09375 -36.109375 C 56.332031 -34.441406 58.066406 -32.332031 59.296875 -29.78125 C 60.523438 -27.226562 61.140625 -24.328125 61.140625 -21.078125 C 61.140625 -5.703125 50.46875 1.984375 29.125 1.984375 C 24.289062 1.984375 19.695312 1.238281 15.34375 -0.25 C 11 -1.75 7.863281 -3.25 5.9375 -4.75 L 3.03125 -7.109375 L 12.515625 -23.0625 C 13.222656 -22.445312 14.144531 -21.722656 15.28125 -20.890625 C 16.425781 -20.054688 18.488281 -18.910156 21.46875 -17.453125 C 24.457031 -16.003906 27.050781 -15.28125 29.25 -15.28125 C 34.082031 -15.28125 36.5 -16.90625 36.5 -20.15625 C 36.5 -21.65625 35.882812 -22.820312 34.65625 -23.65625 C 33.425781 -24.488281 31.335938 -25.429688 28.390625 -26.484375 C 25.453125 -27.535156 23.148438 -28.503906 21.484375 -29.390625 C 17.265625 -31.585938 13.925781 -34.066406 11.46875 -36.828125 C 9.007812 -39.597656 7.78125 -43.269531 7.78125 -47.84375 C 7.78125 -54.6875 10.4375 -60.019531 15.75 -63.84375 C 21.0625 -67.664062 28.242188 -69.578125 37.296875 -69.578125 Z M 37.296875 -69.578125 "/></g></g><g style="fill:#494646;fill-opacity:1;"><g transform="translate(272.491139, 513.538142)"><path style="stroke:none" d="M 77.484375 -59.234375 C 83.804688 -52.335938 86.96875 -43.878906 86.96875 -33.859375 C 86.96875 -23.847656 83.804688 -15.367188 77.484375 -8.421875 C 71.160156 -1.484375 63.125 1.984375 53.375 1.984375 C 44.414062 1.984375 37.035156 -0.828125 31.234375 -6.453125 L 31.234375 34.265625 L 7.90625 34.265625 L 7.90625 -67.609375 L 30.96875 -67.609375 L 30.96875 -59.953125 L 31.234375 -59.953125 C 37.035156 -66.367188 44.414062 -69.578125 53.375 -69.578125 C 63.125 -69.578125 71.160156 -66.128906 77.484375 -59.234375 Z M 57.65625 -22.40625 C 60.6875 -25.394531 62.203125 -29.21875 62.203125 -33.875 C 62.203125 -38.53125 60.75 -42.328125 57.84375 -45.265625 C 54.945312 -48.210938 51.128906 -49.6875 46.390625 -49.6875 C 41.816406 -49.6875 38.054688 -48.191406 35.109375 -45.203125 C 32.171875 -42.210938 30.703125 -38.4375 30.703125 -33.875 C 30.703125 -29.21875 32.21875 -25.394531 35.25 -22.40625 C 38.28125 -19.414062 41.992188 -17.921875 46.390625 -17.921875 C 50.867188 -17.921875 54.625 -19.414062 57.65625 -22.40625 Z M 57.65625 -22.40625 "/></g></g><g style="fill:#494646;fill-opacity:1;"><g transform="translate(350.086158, 513.538142)"><path style="stroke:none" d="M 12.515625 -8.359375 C 6.191406 -15.265625 3.03125 -23.722656 3.03125 -33.734375 C 3.03125 -43.753906 6.191406 -52.234375 12.515625 -59.171875 C 18.835938 -66.109375 26.878906 -69.578125 36.640625 -69.578125 C 45.597656 -69.578125 52.976562 -66.765625 58.78125 -61.140625 L 58.78125 -67.609375 L 82.09375 -67.609375 L 82.09375 0 L 59.03125 0 L 59.03125 -7.640625 L 58.78125 -7.640625 C 52.976562 -1.222656 45.597656 1.984375 36.640625 1.984375 C 26.878906 1.984375 18.835938 -1.460938 12.515625 -8.359375 Z M 32.359375 -45.203125 C 29.328125 -42.210938 27.8125 -38.390625 27.8125 -33.734375 C 27.8125 -29.078125 29.257812 -25.273438 32.15625 -22.328125 C 35.050781 -19.390625 38.875 -17.921875 43.625 -17.921875 C 48.1875 -17.921875 51.9375 -19.414062 54.875 -22.40625 C 57.820312 -25.394531 59.296875 -29.171875 59.296875 -33.734375 C 59.296875 -38.390625 57.78125 -42.210938 54.75 -45.203125 C 51.71875 -48.191406 48.007812 -49.6875 43.625 -49.6875 C 39.144531 -49.6875 35.390625 -48.191406 32.359375 -45.203125 Z M 32.359375 -45.203125 "/></g></g><g style="fill:#494646;fill-opacity:1;"><g transform="translate(427.681178, 513.538142)"><path style="stroke:none" d="M 43.890625 -50.46875 C 39.492188 -50.46875 35.710938 -48.84375 32.546875 -45.59375 C 29.390625 -42.34375 27.8125 -38.4375 27.8125 -33.875 C 27.8125 -29.21875 29.390625 -25.257812 32.546875 -22 C 35.710938 -18.75 39.492188 -17.125 43.890625 -17.125 C 45.992188 -17.125 47.988281 -17.390625 49.875 -17.921875 C 51.769531 -18.453125 53.15625 -18.976562 54.03125 -19.5 L 55.21875 -20.296875 L 63.125 -4.078125 C 62.507812 -3.640625 61.648438 -3.09375 60.546875 -2.4375 C 59.453125 -1.78125 56.945312 -0.878906 53.03125 0.265625 C 49.125 1.410156 44.929688 1.984375 40.453125 1.984375 C 30.523438 1.984375 21.804688 -1.503906 14.296875 -8.484375 C 6.785156 -15.472656 3.03125 -23.847656 3.03125 -33.609375 C 3.03125 -43.441406 6.785156 -51.894531 14.296875 -58.96875 C 21.804688 -66.039062 30.523438 -69.578125 40.453125 -69.578125 C 44.929688 -69.578125 49.0625 -69.050781 52.84375 -68 C 56.625 -66.945312 59.304688 -65.894531 60.890625 -64.84375 L 63.125 -63.25 L 55.21875 -47.3125 C 52.320312 -49.414062 48.546875 -50.46875 43.890625 -50.46875 Z M 43.890625 -50.46875 "/></g></g><g style="fill:#494646;fill-opacity:1;"><g transform="translate(479.980892, 513.538142)"><path style="stroke:none" d="M 76.296875 -30.578125 L 27.28125 -30.578125 C 27.28125 -25.828125 28.816406 -22.3125 31.890625 -20.03125 C 34.960938 -17.75 38.300781 -16.609375 41.90625 -16.609375 C 45.6875 -16.609375 48.671875 -17.113281 50.859375 -18.125 C 53.054688 -19.132812 55.5625 -21.128906 58.375 -24.109375 L 75.25 -15.6875 C 68.21875 -3.90625 56.53125 1.984375 40.1875 1.984375 C 30 1.984375 21.257812 -1.503906 13.96875 -8.484375 C 6.675781 -15.472656 3.03125 -23.890625 3.03125 -33.734375 C 3.03125 -43.578125 6.675781 -52.007812 13.96875 -59.03125 C 21.257812 -66.0625 30 -69.578125 40.1875 -69.578125 C 50.90625 -69.578125 59.625 -66.476562 66.34375 -60.28125 C 73.070312 -54.09375 76.4375 -45.242188 76.4375 -33.734375 C 76.4375 -32.148438 76.390625 -31.097656 76.296875 -30.578125 Z M 27.9375 -43.484375 L 53.640625 -43.484375 C 53.109375 -47.003906 51.722656 -49.707031 49.484375 -51.59375 C 47.242188 -53.476562 44.367188 -54.421875 40.859375 -54.421875 C 36.984375 -54.421875 33.90625 -53.410156 31.625 -51.390625 C 29.34375 -49.367188 28.113281 -46.734375 27.9375 -43.484375 Z M 27.9375 -43.484375 "/></g></g><g style="fill:#494646;fill-opacity:1;"><g transform="translate(547.036193, 513.538142)"><path style="stroke:none" d="M 22.9375 -28.203125 C 27.144531 -28.203125 30.71875 -26.726562 33.65625 -23.78125 C 36.601562 -20.84375 38.078125 -17.265625 38.078125 -13.046875 C 38.078125 -8.921875 36.601562 -5.382812 33.65625 -2.4375 C 30.71875 0.507812 27.144531 1.984375 22.9375 1.984375 C 18.800781 1.984375 15.257812 0.507812 12.3125 -2.4375 C 9.375 -5.382812 7.90625 -8.921875 7.90625 -13.046875 C 7.90625 -17.265625 9.375 -20.84375 12.3125 -23.78125 C 15.257812 -26.726562 18.800781 -28.203125 22.9375 -28.203125 Z M 22.9375 -28.203125 "/></g></g><g clip-rule="nonzero" clip-path="url(#cef2586145)"><path style=" stroke:none;fill-rule:nonzero;fill:#69adc6;fill-opacity:1;" d="M 318.625 529.730469 L 577.613281 529.730469 L 577.613281 542.148438 L 318.625 542.148438 Z M 318.625 529.730469 "/></g><g clip-rule="nonzero" clip-path="url(#2da88ced39)"><path style=" stroke:none;fill-rule:nonzero;fill:#f9943b;fill-opacity:1;" d="M 318.625 550.117188 L 577.613281 550.117188 L 577.613281 562.535156 L 318.625 562.535156 Z M 318.625 550.117188 "/></g><g clip-rule="nonzero" clip-path="url(#419d659471)"><path style=" stroke:none;fill-rule:nonzero;fill:#9dcd5a;fill-opacity:1;" d="M 318.625 570.488281 L 577.613281 570.488281 L 577.613281 582.90625 L 318.625 582.90625 Z M 318.625 570.488281 "/></g><g style="fill:#494646;fill-opacity:1;"><g transform="translate(220.059674, 405.691399)"><path style="stroke:none" d="M 11.859375 -67.609375 L 11.859375 -92.78125 L 35.1875 -92.78125 L 35.1875 -67.609375 L 49.421875 -67.609375 L 49.421875 -49.8125 L 35.1875 -49.8125 L 35.1875 -28.328125 C 35.1875 -22.085938 36.941406 -18.96875 40.453125 -18.96875 C 41.335938 -18.96875 42.257812 -19.144531 43.21875 -19.5 C 44.1875 -19.851562 44.9375 -20.207031 45.46875 -20.5625 L 46.25 -21.078125 L 52.046875 -2.234375 C 47.046875 0.578125 41.335938 1.984375 34.921875 1.984375 C 30.523438 1.984375 26.742188 1.210938 23.578125 -0.328125 C 20.421875 -1.867188 18.03125 -3.929688 16.40625 -6.515625 C 14.78125 -9.109375 13.613281 -11.832031 12.90625 -14.6875 C 12.207031 -17.539062 11.859375 -20.597656 11.859375 -23.859375 L 11.859375 -49.8125 L 2.109375 -49.8125 L 2.109375 -67.609375 Z M 11.859375 -67.609375 "/></g></g><g style="fill:#494646;fill-opacity:1;"><g transform="translate(259.711722, 405.691399)"><path style="stroke:none" d="M 7.90625 0 L 7.90625 -113.328125 L 31.234375 -113.328125 L 31.234375 -60.484375 L 31.5 -60.484375 C 37.5625 -66.546875 44.019531 -69.578125 50.875 -69.578125 C 54.207031 -69.578125 57.519531 -69.132812 60.8125 -68.25 C 64.113281 -67.375 67.28125 -66.015625 70.3125 -64.171875 C 73.34375 -62.328125 75.800781 -59.710938 77.6875 -56.328125 C 79.570312 -52.953125 80.515625 -49.023438 80.515625 -44.546875 L 80.515625 0 L 57.1875 0 L 57.1875 -38.21875 C 57.1875 -41.726562 56.066406 -44.800781 53.828125 -47.4375 C 51.585938 -50.070312 48.664062 -51.390625 45.0625 -51.390625 C 41.550781 -51.390625 38.367188 -50.023438 35.515625 -47.296875 C 32.660156 -44.578125 31.234375 -41.550781 31.234375 -38.21875 L 31.234375 0 Z M 7.90625 0 "/></g></g><g style="fill:#494646;fill-opacity:1;"><g transform="translate(334.408319, 405.691399)"><path style="stroke:none" d="M 10.140625 -105.28125 C 12.867188 -108.007812 16.117188 -109.375 19.890625 -109.375 C 23.671875 -109.375 26.921875 -108.007812 29.640625 -105.28125 C 32.367188 -102.5625 33.734375 -99.3125 33.734375 -95.53125 C 33.734375 -91.757812 32.367188 -88.507812 29.640625 -85.78125 C 26.921875 -83.0625 23.671875 -81.703125 19.890625 -81.703125 C 16.117188 -81.703125 12.867188 -83.0625 10.140625 -85.78125 C 7.421875 -88.507812 6.0625 -91.757812 6.0625 -95.53125 C 6.0625 -99.3125 7.421875 -102.5625 10.140625 -105.28125 Z M 7.90625 -67.609375 L 7.90625 0 L 31.234375 0 L 31.234375 -67.609375 Z M 7.90625 -67.609375 "/></g></g><g style="fill:#494646;fill-opacity:1;"><g transform="translate(361.807981, 405.691399)"><path style="stroke:none" d="M 7.90625 0 L 7.90625 -67.609375 L 31.234375 -67.609375 L 31.234375 -57.859375 L 31.5 -57.859375 C 31.675781 -58.203125 31.960938 -58.632812 32.359375 -59.15625 C 32.753906 -59.6875 33.609375 -60.609375 34.921875 -61.921875 C 36.242188 -63.242188 37.648438 -64.429688 39.140625 -65.484375 C 40.628906 -66.546875 42.5625 -67.492188 44.9375 -68.328125 C 47.3125 -69.160156 49.726562 -69.578125 52.1875 -69.578125 C 54.726562 -69.578125 57.226562 -69.222656 59.6875 -68.515625 C 62.15625 -67.816406 63.957031 -67.117188 65.09375 -66.421875 L 66.9375 -65.359375 L 57.1875 -45.59375 C 54.289062 -48.050781 50.25 -49.28125 45.0625 -49.28125 C 42.257812 -49.28125 39.847656 -48.664062 37.828125 -47.4375 C 35.804688 -46.207031 34.375 -44.710938 33.53125 -42.953125 C 32.695312 -41.203125 32.101562 -39.710938 31.75 -38.484375 C 31.40625 -37.253906 31.234375 -36.285156 31.234375 -35.578125 L 31.234375 0 Z M 7.90625 0 "/></g></g><g style="fill:#494646;fill-opacity:1;"><g transform="translate(415.02992, 405.691399)"><path style="stroke:none" d="M 12.515625 -8.359375 C 6.191406 -15.265625 3.03125 -23.722656 3.03125 -33.734375 C 3.03125 -43.753906 6.191406 -52.234375 12.515625 -59.171875 C 18.835938 -66.109375 26.878906 -69.578125 36.640625 -69.578125 C 45.597656 -69.578125 52.976562 -66.765625 58.78125 -61.140625 L 58.78125 -113.328125 L 82.09375 -113.328125 L 82.09375 0 L 59.03125 0 L 59.03125 -7.640625 L 58.78125 -7.640625 C 52.976562 -1.222656 45.597656 1.984375 36.640625 1.984375 C 26.878906 1.984375 18.835938 -1.460938 12.515625 -8.359375 Z M 32.359375 -45.203125 C 29.328125 -42.210938 27.8125 -38.390625 27.8125 -33.734375 C 27.8125 -29.078125 29.257812 -25.273438 32.15625 -22.328125 C 35.050781 -19.390625 38.875 -17.921875 43.625 -17.921875 C 48.1875 -17.921875 51.9375 -19.414062 54.875 -22.40625 C 57.820312 -25.394531 59.296875 -29.171875 59.296875 -33.734375 C 59.296875 -38.390625 57.78125 -42.210938 54.75 -45.203125 C 51.71875 -48.191406 48.007812 -49.6875 43.625 -49.6875 C 39.144531 -49.6875 35.390625 -48.191406 32.359375 -45.203125 Z M 32.359375 -45.203125 "/></g></g><g style="fill:#575656;fill-opacity:1;"><g transform="translate(226.367066, 262.090948)"><path style="stroke:none" d="M 7.671875 -15.515625 L 7.671875 -4.796875 C 7.671875 -3.585938 8.210938 -2.984375 9.296875 -2.984375 C 9.460938 -2.984375 9.6875 -3.023438 9.96875 -3.109375 C 10.257812 -3.191406 10.488281 -3.234375 10.65625 -3.234375 C 10.96875 -3.234375 11.234375 -3.101562 11.453125 -2.84375 C 11.671875 -2.582031 11.78125 -2.25 11.78125 -1.84375 C 11.78125 -1.332031 11.488281 -0.894531 10.90625 -0.53125 C 10.332031 -0.175781 9.6875 0 8.96875 0 C 8.175781 0 7.445312 -0.0820312 6.78125 -0.25 C 6.125 -0.414062 5.535156 -0.84375 5.015625 -1.53125 C 4.503906 -2.21875 4.25 -3.253906 4.25 -4.640625 L 4.25 -15.515625 L 2.15625 -15.515625 C 1.707031 -15.515625 1.332031 -15.664062 1.03125 -15.96875 C 0.726562 -16.269531 0.578125 -16.648438 0.578125 -17.109375 C 0.578125 -17.566406 0.726562 -17.9375 1.03125 -18.21875 C 1.332031 -18.507812 1.707031 -18.65625 2.15625 -18.65625 L 4.25 -18.65625 L 4.25 -21.6875 C 4.25 -22.164062 4.410156 -22.570312 4.734375 -22.90625 C 5.054688 -23.238281 5.472656 -23.40625 5.984375 -23.40625 C 6.460938 -23.40625 6.863281 -23.238281 7.1875 -22.90625 C 7.507812 -22.570312 7.671875 -22.164062 7.671875 -21.6875 L 7.671875 -18.65625 L 10.65625 -18.65625 C 11.113281 -18.65625 11.492188 -18.503906 11.796875 -18.203125 C 12.097656 -17.898438 12.25 -17.523438 12.25 -17.078125 C 12.25 -16.617188 12.097656 -16.242188 11.796875 -15.953125 C 11.492188 -15.660156 11.113281 -15.515625 10.65625 -15.515625 Z M 7.671875 -15.515625 "/></g></g><g style="fill:#575656;fill-opacity:1;"><g transform="translate(263.537175, 262.090948)"><path style="stroke:none" d="M 11.953125 -19.203125 C 16.179688 -19.203125 18.296875 -16.582031 18.296875 -11.34375 L 18.296875 -1.734375 C 18.296875 -1.253906 18.132812 -0.84375 17.8125 -0.5 C 17.488281 -0.164062 17.070312 0 16.5625 0 C 16.082031 0 15.679688 -0.164062 15.359375 -0.5 C 15.035156 -0.84375 14.875 -1.253906 14.875 -1.734375 L 14.875 -11.34375 C 14.875 -14.46875 13.550781 -16.03125 10.90625 -16.03125 C 9.488281 -16.03125 8.3125 -15.578125 7.375 -14.671875 C 6.445312 -13.773438 5.984375 -12.664062 5.984375 -11.34375 L 5.984375 -1.734375 C 5.984375 -1.253906 5.816406 -0.84375 5.484375 -0.5 C 5.160156 -0.164062 4.75 0 4.25 0 C 3.75 0 3.34375 -0.160156 3.03125 -0.484375 C 2.71875 -0.804688 2.5625 -1.222656 2.5625 -1.734375 L 2.5625 -24.921875 C 2.5625 -25.398438 2.722656 -25.804688 3.046875 -26.140625 C 3.367188 -26.484375 3.769531 -26.65625 4.25 -26.65625 C 4.75 -26.65625 5.160156 -26.484375 5.484375 -26.140625 C 5.816406 -25.804688 5.984375 -25.398438 5.984375 -24.921875 L 5.984375 -15.8125 C 6.578125 -16.75 7.414062 -17.546875 8.5 -18.203125 C 9.582031 -18.867188 10.734375 -19.203125 11.953125 -19.203125 Z M 11.953125 -19.203125 "/></g></g><g style="fill:#575656;fill-opacity:1;"><g transform="translate(307.872256, 262.090948)"><path style="stroke:none" d="M 19.125 -10.15625 C 19.101562 -9.726562 18.921875 -9.363281 18.578125 -9.0625 C 18.242188 -8.757812 17.847656 -8.609375 17.390625 -8.609375 L 4.71875 -8.609375 C 4.882812 -6.859375 5.550781 -5.453125 6.71875 -4.390625 C 7.882812 -3.335938 9.304688 -2.8125 10.984375 -2.8125 C 12.140625 -2.8125 13.078125 -2.976562 13.796875 -3.3125 C 14.515625 -3.644531 15.148438 -4.078125 15.703125 -4.609375 C 16.066406 -4.828125 16.414062 -4.9375 16.75 -4.9375 C 17.15625 -4.9375 17.492188 -4.789062 17.765625 -4.5 C 18.046875 -4.207031 18.1875 -3.875 18.1875 -3.5 C 18.1875 -2.988281 17.945312 -2.53125 17.46875 -2.125 C 16.769531 -1.425781 15.84375 -0.835938 14.6875 -0.359375 C 13.539062 0.117188 12.367188 0.359375 11.171875 0.359375 C 9.222656 0.359375 7.507812 -0.046875 6.03125 -0.859375 C 4.550781 -1.679688 3.410156 -2.820312 2.609375 -4.28125 C 1.804688 -5.75 1.40625 -7.40625 1.40625 -9.25 C 1.40625 -11.269531 1.816406 -13.039062 2.640625 -14.5625 C 3.472656 -16.09375 4.566406 -17.265625 5.921875 -18.078125 C 7.273438 -18.890625 8.734375 -19.296875 10.296875 -19.296875 C 11.835938 -19.296875 13.28125 -18.898438 14.625 -18.109375 C 15.96875 -17.316406 17.046875 -16.222656 17.859375 -14.828125 C 18.679688 -13.441406 19.101562 -11.882812 19.125 -10.15625 Z M 10.296875 -16.140625 C 8.953125 -16.140625 7.785156 -15.757812 6.796875 -15 C 5.816406 -14.238281 5.171875 -13.066406 4.859375 -11.484375 L 15.484375 -11.484375 L 15.484375 -11.78125 C 15.367188 -13.050781 14.800781 -14.09375 13.78125 -14.90625 C 12.757812 -15.726562 11.597656 -16.140625 10.296875 -16.140625 Z M 10.296875 -16.140625 "/></g></g><g clip-rule="nonzero" clip-path="url(#3ce6f22fef)"><path style=" stroke:none;fill-rule:nonzero;fill:#494646;fill-opacity:1;" d="M 280.59375 499.136719 L 304.640625 499.136719 L 304.640625 582.914062 L 280.59375 582.914062 Z M 280.59375 499.136719 "/></g><g clip-rule="nonzero" clip-path="url(#3350cbec71)"><path style=" stroke:none;fill-rule:nonzero;fill:#494646;fill-opacity:1;" d="M 474.015625 267.371094 L 497.285156 267.371094 L 497.285156 351.09375 L 474.015625 351.09375 Z M 474.015625 267.371094 "/></g></g></svg>